# xmcd
# Track frame offsets:
# 150
# 10765
# 22252
# 29877
# 40392
# 57422
# 68235
# 80112
# 90262
# 98712
# 112590
# 120467
#
# Disc length: 1779 seconds
# Revision: 3
# Processed by: cddbd v1.5.2PL0 Copyright (c) Steve Scherf et al.
# Submitted via: VisiTrax 2.11.2.271 - For more info visit www.synapsa.com
#
DISCID=9706f10c
DTITLE=Slim Dusty - Dusty Tracks
DYEAR=1973
DGENRE=Australian Country
TTITLE0=Leaning Post
TTITLE1=Arajoel Waltz
TTITLE2=Sweet Talking Girl
TTITLE3=Don't Laugh In The Face Of Father Time
TTITLE4=When The Moon Across The Bushland Beams
TTITLE5=I Don't Want No Woman Around
TTITLE6=Wagon Trains North
TTITLE7=Wedding Bell Blues
TTITLE8=A Friend Indeed
TTITLE9=The Happiest Days Of All
TTITLE10=Slow Down
TTITLE11=The Boys Who Never Returned
EXTD=1973 EMI Music Australia
EXTT0=
EXTT1=
EXTT2=
EXTT3=
EXTT4=
EXTT5=
EXTT6=
EXTT7=
EXTT8=
EXTT9=
EXTT10=
EXTT11=
PLAYORDER=
